<?xml version="1.0" standalone="no"?><!DOCTYPE svg PUBLIC "-//W3C//DTD SVG 1.1//EN" "http://www.w3.org/Graphics/SVG/1.1/DTD/svg11.dtd"><svg t="1587610420498" class="icon" viewBox="0 0 1024 1024" version="1.1" xmlns="http://www.w3.org/2000/svg" p-id="32108" xmlns:xlink="http://www.w3.org/1999/xlink" width="200" height="200"><defs><style type="text/css"></style></defs><path d="M449.913455 0.89744c245.086951 0 449.529203 192.033641 449.529203 437.121616 0 3.728928-0.049119 7.449669-0.141216 11.158131l-0.021489 0.798179c-0.092098 3.456728-0.222057 6.906294-0.391926 10.344602l-0.060375 1.155313c-0.177032 3.371794-0.38988 6.732331-0.64059 10.083659l-0.080841 1.078565c-0.265036 3.428076-0.569982 6.844895-0.912789 10.252505l-0.073678 0.77055c-0.366344 3.604084-0.777713 7.203052-1.232061 10.782577l-0.042979 0.325411c-0.446162 3.477194-0.929162 6.944156-1.456165 10.397814-0.053212 0.363274-0.113587 0.727571-0.169869 1.087774-0.497327 3.247974-1.035586 6.481621-1.607614 9.700943l-0.223081 1.260713c-0.576121 3.188622-1.183965 6.368034-1.826602 9.532097l-0.24457 1.205455c-0.674359 3.270487-1.384533 6.529717-2.1295 9.777691l-0.167822 0.74599c-0.787946 3.396353-1.612731 6.782473-2.478448 10.147104-0.078795 0.308015-0.159636 0.611937-0.239454 0.917906-0.813528 3.145643-1.662873 6.281053-2.543939 9.402137l-0.379647 1.328251c-0.859577 3.001357-1.749854 5.990434-2.667759 8.967232l-0.446162 1.433652c-0.929162 2.969635-1.89107 5.924943-2.87856 8.864902-0.148379 0.441045-0.293689 0.887206-0.447185 1.328251-1.044796 3.075035-2.122337 6.135744-3.233648 9.182127l-0.347924 0.958838c-1.139963 3.102664-2.315742 6.192026-3.52222 9.262968-0.174985 0.445138-0.353041 0.887206-0.530073 1.332345-1.12052 2.817162-2.2656 5.623068-3.438309 8.411577-0.230244 0.548492-0.462534 1.091868-0.696872 1.641383-1.156336 2.713808-2.336208 5.41022-3.542686 8.095375-0.245593 0.548492-0.49221 1.095961-0.740874 1.64343-1.230014 2.707668-2.488681 5.396917-3.771907 8.075933-0.23536 0.494257-0.469698 0.99363-0.709151 1.487887-1.372254 2.837628-2.774183 5.65786-4.205788 8.461719l-0.74292 1.444908c-1.387603 2.696412-2.801812 5.383614-4.245697 8.04728-0.305969 0.562818-0.613984 1.12052-0.920976 1.682315-1.36509 2.498914-2.75167 4.983501-4.16588 7.450692-0.345877 0.610914-0.697895 1.217734-1.048889 1.822508-1.400906 2.425236-2.827395 4.836145-4.273327 7.227612-0.366344 0.608867-0.731664 1.215688-1.101077 1.820462-1.496074 2.452865-3.018753 4.88731-4.563946 7.309476-0.315178 0.497327-0.62831 0.9967-0.947582 1.49505-1.675152 2.604314-3.378957 5.187139-5.107321 7.753591-0.38374 0.573051-0.773619 1.140986-1.162476 1.714038-1.594311 2.343371-3.209088 4.675486-4.845355 6.991228-0.432859 0.610914-0.868787 1.215688-1.305739 1.826602-1.581008 2.208295-3.181459 4.40431-4.799306 6.583952-0.475837 0.636496-0.951675 1.27197-1.428535 1.908466-1.62808 2.163269-3.276626 4.312212-4.942569 6.446829-0.462534 0.590448-0.924045 1.188058-1.390673 1.777483-1.744737 2.211365-3.517103 4.40431-5.300726 6.584975-0.512676 0.621147-1.02433 1.243317-1.538029 1.864464-1.87265 2.263553-3.767813 4.503571-5.686513 6.722098l202.169489 190.122105c25.201985 27.15343 28.418236 66.38392 5.89936 85.670172l-9.200546 7.880481c-22.518876 19.283182-60.578704 14.048971-85.792968-13.111622L708.113051 809.482275l-0.027629 0.017396c-1.421372 0.951675-2.847861 1.888-4.281513 2.821255-1.653663 1.077541-3.316535 2.14178-4.984524 3.198855-1.471514 0.929162-2.945075 1.852184-4.427846 2.762927-1.608637 0.989537-3.225461 1.967818-4.849448 2.939959-1.428535 0.855484-2.859118 1.703805-4.299933 2.544963-1.38965 0.813528-2.786463 1.617847-4.189416 2.412956-1.675152 0.954745-3.360538 1.895163-5.054109 2.828418-1.529843 0.844228-3.068895 1.682315-4.612041 2.508123-1.723248 0.921999-3.452635 1.837858-5.188162 2.739391-1.452071 0.753153-2.90926 1.499144-4.369517 2.237971-1.885953 0.954745-3.780093 1.895163-5.681396 2.824325-1.110287 0.540306-2.219551 1.074472-3.337002 1.607614-2.049682 0.979304-4.110621 1.940189-6.1777 2.886747-1.283226 0.586354-2.566452 1.167592-3.852748 1.74269-2.037403 0.908696-4.080945 1.802042-6.135744 2.682086-1.222851 0.522909-2.444679 1.042749-3.674693 1.555425-2.206248 0.921999-4.417613 1.830695-6.641257 2.716878-0.959861 0.382717-1.920746 0.763386-2.883677 1.13894-2.554172 0.99977-5.120624 1.976004-7.698333 2.928702-0.871857 0.321318-1.743714 0.636496-2.614547 0.951675-2.441609 0.883113-4.89038 1.74576-7.347339 2.589988-0.932232 0.319272-1.863441 0.632403-2.797719 0.947582-2.563382 0.858554-5.139044 1.691525-7.722892 2.505054-0.735757 0.234337-1.469468 0.463558-2.203178 0.693802-2.849908 0.87902-5.713119 1.727341-8.586562 2.551102-0.689708 0.197498-1.379417 0.391926-2.071172 0.586354-2.860141 0.805342-5.732561 1.583055-8.615215 2.332115-0.61603 0.158612-1.230014 0.318248-1.848091 0.473791-2.904143 0.74292-5.816472 1.453095-8.742105 2.134617-0.524956 0.12382-1.048889 0.24764-1.575892 0.367367-3.120061 0.717338-6.255471 1.39579-9.401114 2.046612l-1.533936 0.315178c-3.219321 0.652869-6.451946 1.27504-9.698896 1.858324l-1.074472 0.187265c-3.216251 0.573051-6.447852 1.105171-9.69071 1.607614l-0.972141 0.151449c-3.372817 0.511653-6.759961 0.982374-10.160407 1.420349l-1.046842 0.135076c-3.431146 0.431835-6.871501 0.827855-10.326183 1.179872l-0.788969 0.077771c-3.498684 0.354064-7.010671 0.664126-10.532891 0.936325l-0.335644 0.025583c-3.568269 0.272199-7.14984 0.494257-10.743692 0.681522l-0.823761 0.041956c-3.563152 0.181125-7.137561 0.315178-10.723226 0.409322l-0.665149 0.014326c-3.680832 0.093121-7.370875 0.14224-11.07422 0.14224-245.084904 0-452.887694-194.117093-452.887694-439.20302C9.140683 199.653179 204.82855 0.89744 449.913455 0.89744L449.913455 0.89744zM830.135152 676.223249l-0.947582 1.49505C829.505819 677.218926 829.819974 676.720575 830.135152 676.223249L830.135152 676.223249zM450.532555 117.14093c-180.558285 0-326.983169 146.423861-326.983169 326.982146 0 180.558285 146.424884 326.983169 326.983169 326.983169 180.555216 0 326.980099-146.424884 326.980099-326.983169C777.512654 263.564791 631.08777 117.14093 450.532555 117.14093z" p-id="32109" data-spm-anchor-id="a313x.7781069.0.i9" class="selected" fill="#888888"></path></svg>